<svg xmlns="http://www.w3.org/2000/svg" version="1.1" xmlns:xlink="http://www.w3.org/1999/xlink" xmlns:svgjs="http://svgjs.dev/svgjs" width="1440" height="560" preserveAspectRatio="none" viewBox="0 0 1440 560"><g mask="url(&quot;#SvgjsMask1000&quot;)" fill="none"><rect width="1440" height="560" x="0" y="0" fill="#0e2a47"></rect><path d="M707.863,366.71C740.642,366.263,760.501,334.949,777.427,306.874C795.194,277.404,817.285,243.269,800.337,213.321C783.264,183.153,742.495,182.469,707.863,183.956C676.544,185.301,644.001,193.643,628.19,220.712C612.268,247.972,619.809,281.107,634.931,308.818C650.867,338.02,674.599,367.164,707.863,366.71" fill="rgba(28, 83, 142, 0.4)" class="triangle-float3"></path><path d="M531.2138330378749 52.00790816292844L415.11397794779566 39.80532167922982 402.91139146409705 155.90517676930907 519.0112465541763 168.10776325300768z" fill="rgba(28, 83, 142, 0.4)" class="triangle-float3"></path><path d="M723.6528463172564 557.3771063571024L833.3257950468226 670.9467693693671 946.8954580590873 561.2738206398009 837.222509329521 447.7041576275362z" fill="rgba(28, 83, 142, 0.4)" class="triangle-float2"></path><path d="M1307.46,348.41C1335.859,347.368,1357.033,325.077,1370.7,300.161C1383.749,276.372,1388.632,248.109,1375.498,224.367C1361.976,199.923,1335.343,184.139,1307.46,185.839C1281.873,187.399,1265.644,209.911,1252.42,231.872C1238.571,254.87,1224.171,280.842,1235.636,305.117C1248.431,332.208,1277.519,349.509,1307.46,348.41" fill="rgba(28, 83, 142, 0.4)" class="triangle-float2"></path><path d="M139.522,382.201C168.188,381.122,197.935,373.239,212.379,348.455C226.906,323.529,221.718,292.21,206.109,267.947C191.766,245.652,165.998,236.543,139.522,235.201C109.782,233.694,77.145,236.117,60.119,260.547C40.949,288.053,38.178,326.246,56.503,354.322C73.604,380.523,108.256,383.378,139.522,382.201" fill="rgba(28, 83, 142, 0.4)" class="triangle-float3"></path><path d="M767.623,521.539C799.009,520.726,830.078,511.119,847.571,485.047C867.273,455.681,876.782,416.679,858.138,386.63C840.151,357.64,801.74,356.083,767.623,356.196C733.786,356.308,696.711,358.941,678.138,387.225C658.1,417.74,659.92,459.004,680.161,489.385C698.62,517.091,734.342,522.401,767.623,521.539" fill="rgba(28, 83, 142, 0.4)" class="triangle-float3"></path></g><defs><mask id="SvgjsMask1000"><rect width="1440" height="560" fill="#ffffff"></rect></mask><style>
                @keyframes float1 {
                    0%{transform: translate(0, 0)}
                    50%{transform: translate(-10px, 0)}
                    100%{transform: translate(0, 0)}
                }

                .triangle-float1 {
                    animation: float1 5s infinite;
                }

                @keyframes float2 {
                    0%{transform: translate(0, 0)}
                    50%{transform: translate(-5px, -5px)}
                    100%{transform: translate(0, 0)}
                }

                .triangle-float2 {
                    animation: float2 4s infinite;
                }

                @keyframes float3 {
                    0%{transform: translate(0, 0)}
                    50%{transform: translate(0, -10px)}
                    100%{transform: translate(0, 0)}
                }

                .triangle-float3 {
                    animation: float3 6s infinite;
                }
            </style></defs></svg>